<svg width="8" height="12" viewBox="0 0 8 12" fill="none" xmlns="http://www.w3.org/2000/svg">
<path d="M3.06066 0.93934C2.47487 0.353553 1.52513 0.353553 0.93934 0.93934C0.353553 1.52513 0.353553 2.47487 0.93934 3.06066L3.06066 0.93934ZM6 6L7.06066 7.06066C7.64645 6.47487 7.64645 5.52513 7.06066 4.93934L6 6ZM0.93934 8.93934C0.353553 9.52513 0.353553 10.4749 0.93934 11.0607C1.52513 11.6464 2.47487 11.6464 3.06066 11.0607L0.93934 8.93934ZM0.93934 3.06066L4.93934 7.06066L7.06066 4.93934L3.06066 0.93934L0.93934 3.06066ZM4.93934 4.93934L0.93934 8.93934L3.06066 11.0607L7.06066 7.06066L4.93934 4.93934Z" fill="#0066B3"/>
</svg>
